<?xml version="1.0" standalone="no"?>
<!DOCTYPE svg PUBLIC "-//W3C//DTD SVG 20010904//EN"
 "http://www.w3.org/TR/2001/REC-SVG-20010904/DTD/svg10.dtd">
<svg version="1.0" xmlns="http://www.w3.org/2000/svg"
 width="945.000000pt" height="945.000000pt" viewBox="0 0 945.000000 945.000000"
 preserveAspectRatio="xMidYMid meet">
<metadata>
Created by potrace 1.14, written by Peter Selinger 2001-2017
</metadata>
<g transform="translate(0.000000,945.000000) scale(0.100000,-0.100000)"
fill="#000000" stroke="none">
<path d="M0 4725 l0 -4725 4725 0 4725 0 0 4725 0 4725 -4725 0 -4725 0 0
-4725z m5079 4372 c36 -13 72 -37 103 -68 49 -49 65 -57 84 -40 26 24 118 43
192 39 102 -5 158 -33 248 -122 89 -89 110 -126 92 -164 -10 -21 -21 -28 -49
-30 -32 -3 -40 2 -73 43 -96 116 -154 149 -254 143 -68 -4 -122 -23 -129 -45
-3 -7 23 -26 57 -43 69 -35 90 -65 72 -105 -18 -40 -54 -42 -130 -7 -81 37
-183 55 -263 46 -49 -5 -63 -4 -79 11 -20 18 -26 60 -12 82 13 20 61 33 122
33 32 0 62 5 66 11 10 17 -28 61 -77 89 -39 22 -56 25 -139 24 -79 0 -107 -5
-170 -28 -41 -16 -88 -29 -104 -29 -52 0 -75 64 -36 103 10 10 56 31 102 45
152 47 272 51 377 12z m-1094 -52 c14 -13 25 -32 25 -41 0 -9 61 -484 135
-1055 74 -571 135 -1047 135 -1059 0 -25 -34 -60 -59 -60 -10 0 -28 8 -40 18
-23 18 -13 -53 -226 1602 -36 278 -67 520 -70 538 -5 25 -1 37 19 57 31 31 50
32 81 0z m-742 -187 c22 -20 72 -201 376 -1338 193 -723 351 -1327 351 -1342
0 -53 -84 -77 -109 -30 -21 39 -712 2646 -709 2675 2 22 11 35 28 44 33 17 35
17 63 -9z m2975 0 c16 -14 15 -63 -3 -126 -18 -59 -37 -82 -69 -82 -60 0 -73
48 -43 151 22 73 66 95 115 57z m-1484 -164 c15 -14 16 -191 14 -1842 l-3
-1826 -27 -16 c-25 -13 -31 -13 -55 0 l-28 16 -3 1826 c-2 1651 -1 1828 14
1842 8 9 28 16 44 16 16 0 36 -7 44 -16z m-2161 -142 c18 -20 557 -1323 557
-1347 0 -23 -37 -55 -63 -55 -13 0 -31 8 -41 19 -18 20 -546 1290 -553 1333
-10 53 64 90 100 50z m4329 1 c10 -9 18 -26 18 -38 0 -33 -539 -1338 -558
-1353 -25 -19 -62 -10 -85 20 l-20 27 272 663 c150 365 280 671 289 681 19 22
60 22 84 0z m-1144 -45 c18 -5 53 -26 79 -45 l45 -35 64 18 c74 20 134 15 195
-17 57 -29 122 -91 149 -143 23 -42 23 -45 7 -70 -13 -19 -26 -26 -50 -26 -26
0 -41 10 -79 54 -52 59 -99 86 -151 86 -50 0 -56 -18 -18 -49 41 -34 43 -82 5
-108 -22 -14 -30 -15 -58 -4 -92 38 -117 44 -192 45 -93 2 -114 13 -114 61 0
39 14 52 66 63 45 9 51 30 14 49 -47 24 -145 14 -233 -24 -45 -19 -81 -8 -99
31 -16 37 10 70 76 95 100 37 211 44 294 19z m-540 -270 c18 -5 53 -25 78 -44
l45 -35 45 16 c86 29 177 14 251 -42 51 -39 113 -120 113 -148 0 -25 -42 -65
-67 -65 -9 0 -38 24 -65 54 -54 60 -99 86 -147 86 -39 0 -41 -20 -5 -55 20
-20 24 -32 19 -53 -13 -57 -42 -61 -145 -23 -37 14 -80 20 -129 21 -55 0 -79
4 -93 17 -36 33 -11 103 37 103 29 0 47 21 35 40 -15 24 -142 18 -218 -9 -57
-21 -65 -22 -86 -8 -56 37 -35 92 48 125 94 38 201 45 284 20z m-3110 -361
c164 -285 171 -304 117 -329 -54 -24 -63 -14 -223 265 -84 145 -152 272 -152
282 0 33 31 56 69 53 35 -3 37 -5 189 -271z m5406 251 c9 -12 16 -29 16 -37 0
-16 -285 -515 -307 -537 -31 -31 -103 -1 -103 44 0 13 233 431 296 530 20 31
77 31 98 0z m-1549 -193 c14 -13 25 -28 25 -33 0 -15 -459 -1726 -469 -1748
-23 -52 -111 -32 -111 25 0 16 103 416 230 888 237 885 239 893 287 893 7 0
25 -11 38 -25z m-657 -241 c15 -11 22 -25 22 -50 0 -19 -63 -507 -140 -1086
-110 -828 -143 -1055 -156 -1070 -33 -36 -104 -12 -104 36 0 12 63 498 141
1081 137 1036 141 1061 165 1083 30 26 42 27 72 6z m-3892 -49 c26 -17 169
-202 185 -238 21 -47 -28 -95 -77 -76 -24 8 -204 242 -204 265 0 18 44 64 62
64 8 0 23 -7 34 -15z m6629 -10 c40 -39 39 -40 -78 -194 -43 -56 -88 -106
-100 -110 -30 -12 -60 1 -75 32 -16 33 -14 37 89 172 103 135 120 145 164 100z
m-5806 -235 c255 -86 367 -318 317 -659 -10 -62 -15 -116 -12 -118 3 -3 35 21
71 54 83 75 200 146 296 180 98 35 240 43 325 18 148 -42 269 -140 329 -266
38 -81 44 -123 18 -151 -36 -40 -85 -17 -108 51 -43 132 -160 229 -307 255
-57 10 -53 -8 11 -48 65 -39 144 -122 169 -174 15 -30 15 -36 1 -60 -11 -21
-22 -27 -49 -27 -30 0 -40 7 -79 59 -78 102 -201 166 -323 166 -70 0 -76 -16
-18 -43 49 -23 145 -109 165 -148 17 -32 7 -72 -20 -83 -36 -13 -58 -4 -100
42 -61 66 -131 103 -195 104 -48 0 -80 -13 -80 -33 0 -5 21 -19 46 -31 64 -30
124 -88 124 -121 0 -53 -70 -78 -107 -38 -33 34 -87 61 -125 61 -65 0 -122
-68 -221 -266 -35 -70 -50 -84 -87 -84 -22 0 -60 37 -60 58 0 7 16 50 36 95
53 121 102 255 115 316 24 113 -20 202 -118 236 -89 31 -98 38 -101 77 -3 30
1 40 22 53 23 16 29 16 83 0 32 -9 77 -28 101 -42 24 -13 46 -23 48 -20 11 10
-26 78 -65 120 -52 56 -136 94 -233 107 -56 7 -77 14 -90 30 -38 47 -6 100 60
100 89 0 238 -53 300 -105 18 -15 36 -25 39 -21 11 11 -16 81 -47 125 -65 90
-176 134 -334 134 -83 -1 -101 2 -117 18 -32 32 -20 86 21 103 34 14 235 -2
299 -24z m5227 6 c20 -28 17 -63 -7 -87 -18 -18 -29 -21 -74 -16 -76 8 -189
-9 -249 -36 -72 -33 -121 -79 -151 -142 -40 -81 -31 -92 38 -45 67 45 164 78
253 87 54 5 64 3 83 -16 26 -26 27 -52 3 -81 -13 -16 -34 -23 -90 -30 -97 -13
-181 -51 -233 -107 -39 -42 -76 -110 -65 -120 2 -3 24 7 48 20 24 14 69 33
101 42 54 16 60 16 83 0 21 -13 25 -23 22 -53 -3 -39 -12 -46 -101 -77 -98
-34 -142 -123 -119 -239 10 -49 70 -210 133 -353 21 -49 22 -53 5 -78 -21 -32
-38 -39 -71 -31 -19 5 -34 25 -61 79 -100 199 -157 267 -222 267 -38 0 -92
-27 -125 -61 -37 -40 -107 -15 -107 38 0 33 60 91 124 121 25 12 46 26 46 31
0 20 -32 33 -80 33 -64 -1 -133 -37 -195 -103 -52 -55 -82 -62 -116 -28 -15
15 -19 28 -15 47 8 35 121 143 174 168 69 32 55 47 -36 42 -130 -7 -233 -68
-325 -191 -24 -32 -34 -38 -60 -35 -46 4 -66 43 -47 89 18 43 145 170 188 188
47 19 43 44 -5 35 -148 -26 -264 -123 -308 -255 -23 -69 -72 -91 -110 -49 -40
44 14 179 110 275 163 163 394 200 622 100 73 -33 180 -105 248 -167 31 -28
58 -48 61 -45 3 3 0 34 -7 68 -20 101 -17 312 5 384 55 184 178 300 360 341
34 7 104 12 159 11 85 -2 101 -5 113 -21z m-5893 -252 c170 -37 344 -151 442
-289 106 -148 146 -278 152 -496 4 -131 2 -174 -16 -267 -25 -131 -81 -297
-151 -449 -27 -61 -50 -115 -50 -121 0 -13 94 -45 98 -33 8 24 162 246 226
326 248 308 465 441 776 475 342 38 693 -114 801 -344 17 -37 34 -87 37 -111
4 -38 1 -45 -22 -60 -22 -15 -31 -16 -56 -5 -24 10 -33 23 -45 63 -20 67 -67
138 -121 182 -48 40 -166 105 -190 105 -20 0 -17 -14 6 -35 57 -51 120 -195
120 -273 0 -41 -23 -72 -55 -72 -37 0 -55 23 -71 89 -30 131 -99 215 -229 277
-127 62 -153 42 -62 -48 94 -93 152 -218 122 -264 -38 -58 -91 -34 -124 55
-39 107 -158 203 -272 218 -34 5 -39 3 -39 -15 0 -12 8 -23 19 -27 10 -3 37
-19 60 -35 34 -25 41 -36 41 -63 0 -18 -5 -38 -12 -45 -18 -18 -66 -15 -96 7
-47 32 -100 44 -186 39 -58 -3 -94 -11 -126 -27 -48 -25 -102 -70 -95 -81 2
-3 41 -2 87 3 173 20 392 -23 573 -112 381 -188 530 -558 411 -1023 -29 -114
-62 -203 -83 -224 -24 -23 -74 -14 -92 17 -13 24 -12 35 22 135 93 282 90 516
-8 702 -39 73 -119 171 -130 160 -4 -4 4 -33 19 -64 62 -130 82 -311 51 -468
-23 -123 -52 -159 -105 -133 -41 21 -45 39 -27 118 50 225 12 413 -115 565
-61 73 -148 144 -148 120 0 -3 22 -37 49 -76 85 -123 131 -274 117 -383 -8
-61 -28 -87 -66 -87 -46 0 -57 25 -62 136 -3 96 -6 107 -47 189 -30 61 -63
109 -111 159 -38 39 -71 68 -75 64 -4 -3 11 -36 34 -73 58 -97 75 -199 39
-242 -6 -7 -25 -13 -44 -13 -41 0 -64 30 -64 84 0 114 -144 261 -275 281 -33
5 -48 1 -87 -24 -41 -26 -128 -134 -128 -159 0 -5 32 -12 71 -16 102 -9 153
-23 245 -67 257 -122 397 -438 318 -718 -35 -123 -131 -258 -210 -296 -35 -16
-37 -16 -63 2 -16 12 -27 32 -29 50 -2 24 5 36 46 71 162 136 199 379 91 583
-17 31 -42 68 -56 81 l-26 23 7 -40 c17 -100 17 -173 2 -243 -17 -81 -66 -189
-101 -222 -32 -30 -84 -24 -105 13 -14 25 -13 29 2 55 10 15 32 56 50 92 31
62 33 71 33 175 0 100 -2 114 -27 160 -33 62 -74 112 -83 103 -4 -3 -1 -32 5
-63 13 -64 7 -120 -21 -185 -38 -86 -87 -112 -129 -70 -26 26 -25 49 6 107 34
63 31 149 -7 189 -29 31 -96 67 -109 59 -6 -4 -20 -25 -31 -47 l-20 -40 20
-22 c27 -28 27 -60 0 -87 -15 -15 -29 -20 -48 -16 -25 5 -30 1 -49 -37 -17
-36 -18 -46 -7 -57 27 -29 27 -57 1 -84 -14 -14 -34 -25 -45 -25 -27 0 -60
-84 -43 -109 7 -9 17 -27 22 -40 14 -32 -10 -68 -51 -79 -27 -7 -34 -15 -49
-64 -17 -55 -17 -58 1 -74 36 -33 15 -104 -31 -104 -20 0 -31 -27 -51 -126
-12 -58 -11 -62 9 -84 12 -13 22 -31 22 -40 0 -25 -29 -60 -50 -60 -21 0 -23
-8 -44 -160 l-13 -95 29 -26 c15 -15 28 -34 28 -43 0 -17 -37 -60 -57 -67 -7
-3 -14 -56 -19 -145 l-7 -140 37 -22 c34 -20 37 -26 34 -59 -2 -30 -9 -41 -30
-51 -16 -7 -28 -16 -28 -20 0 -21 40 -276 44 -279 2 -3 19 -12 38 -21 42 -21
51 -69 18 -102 l-21 -21 37 -92 c20 -51 50 -115 66 -144 l29 -51 102 34 c453
154 1055 283 1622 348 1327 153 2781 22 3873 -348 l102 -35 42 82 c22 45 52
111 65 146 l24 64 -21 14 c-16 11 -20 24 -18 51 2 30 9 40 36 54 19 9 35 18
37 20 3 4 31 171 39 238 5 42 3 46 -25 62 -24 14 -29 24 -29 53 0 29 5 39 30
53 16 9 32 24 36 32 3 8 2 75 -2 147 -6 118 -9 133 -26 139 -27 8 -51 49 -43
74 4 11 17 27 29 35 21 14 22 19 14 78 -20 156 -30 197 -46 197 -24 0 -52 30
-52 57 0 12 10 33 22 45 20 20 21 25 10 77 -23 108 -32 131 -52 131 -46 0 -68
71 -31 104 19 17 19 18 0 76 -17 49 -24 59 -49 64 -16 3 -37 17 -46 31 -17 26
-14 43 17 86 17 23 -17 109 -43 109 -10 0 -30 11 -44 25 -26 27 -26 55 1 84
11 11 10 21 -7 57 -19 38 -24 42 -49 37 -19 -4 -33 1 -48 16 -27 27 -27 59 0
87 l20 22 -20 40 c-11 22 -25 43 -30 46 -15 10 -74 -20 -105 -53 -24 -25 -30
-42 -34 -88 -3 -48 1 -66 22 -106 31 -58 32 -81 6 -107 -42 -42 -91 -16 -129
70 -28 64 -35 131 -21 190 7 28 9 54 5 58 -9 9 -50 -41 -83 -103 -25 -46 -27
-60 -27 -160 0 -104 2 -113 33 -175 18 -36 40 -77 50 -92 15 -26 16 -30 2 -55
-12 -21 -24 -29 -51 -31 -31 -3 -41 2 -64 30 -67 79 -111 234 -101 353 4 39 9
86 12 105 l7 35 -27 -25 c-36 -33 -92 -147 -107 -217 -6 -34 -9 -95 -6 -146 6
-120 51 -213 138 -289 50 -45 59 -58 57 -82 -2 -17 -13 -37 -29 -48 -32 -24
-62 -14 -124 43 -62 57 -110 133 -141 225 -24 68 -27 95 -27 189 0 94 4 122
29 195 83 248 281 401 552 426 40 4 72 10 72 14 0 4 -18 35 -40 69 -53 81
-118 125 -175 116 -62 -9 -125 -44 -183 -102 -61 -61 -91 -120 -92 -180 0 -55
-28 -85 -73 -81 -80 8 -70 151 20 281 46 66 14 54 -59 -21 -51 -54 -81 -97
-111 -160 -39 -80 -42 -93 -45 -187 -5 -110 -16 -135 -62 -135 -40 0 -59 29
-66 96 -11 114 45 284 131 397 41 54 40 69 -2 42 -88 -58 -188 -200 -225 -320
-28 -90 -30 -237 -4 -348 16 -72 16 -80 2 -103 -23 -34 -70 -36 -98 -3 -28 33
-51 197 -45 318 6 111 22 180 64 269 14 29 22 56 18 60 -11 11 -92 -88 -130
-160 -98 -185 -101 -420 -8 -701 40 -120 37 -151 -12 -163 -50 -12 -69 7 -103
107 -95 278 -104 520 -27 725 116 308 430 512 830 539 50 3 121 2 158 -3 37
-5 70 -6 72 -2 7 11 -46 56 -95 81 -32 16 -68 24 -126 27 -86 5 -139 -7 -186
-39 -30 -22 -78 -25 -96 -7 -7 7 -12 27 -12 45 0 27 7 38 41 63 23 16 50 32
60 35 11 4 19 15 19 27 0 18 -4 20 -41 15 -105 -14 -217 -99 -261 -197 -11
-25 -25 -56 -32 -70 -6 -14 -24 -29 -40 -35 -25 -8 -31 -6 -53 19 -19 23 -23
35 -17 60 13 62 67 151 130 214 65 64 71 82 31 82 -36 0 -158 -64 -208 -108
-54 -49 -107 -142 -116 -208 -10 -76 -66 -110 -108 -64 -41 45 8 211 91 308
20 24 34 46 30 49 -10 10 -93 -27 -157 -69 -72 -48 -131 -119 -154 -185 -24
-68 -29 -76 -57 -92 -23 -13 -29 -13 -53 3 -25 17 -27 22 -22 66 15 123 135
271 282 346 228 118 488 142 741 68 216 -62 390 -192 590 -439 64 -80 218
-302 226 -326 4 -12 98 20 98 33 0 5 -16 44 -36 86 -131 281 -186 493 -186
721 1 246 69 440 209 591 148 160 336 240 564 240 162 0 281 -27 424 -97 157
-77 195 -116 162 -167 -23 -34 -50 -37 -99 -10 -199 111 -332 154 -483 154
-98 0 -245 -31 -245 -51 0 -5 38 -9 84 -9 101 0 168 -12 263 -46 121 -43 155
-99 91 -147 l-28 -21 -67 32 c-100 46 -146 56 -268 55 -89 0 -124 -5 -180 -24
-45 -15 -70 -29 -70 -39 0 -12 19 -15 110 -16 160 -2 245 -34 245 -93 0 -32
-8 -44 -37 -60 -18 -9 -32 -7 -75 10 -44 17 -69 20 -144 17 -80 -3 -100 -8
-160 -38 -74 -37 -93 -68 -39 -62 17 2 62 4 101 5 82 2 114 -16 114 -63 0 -44
-26 -59 -100 -57 -55 1 -72 -3 -113 -26 -52 -31 -99 -88 -118 -144 -17 -51 6
-233 29 -233 4 0 22 30 41 66 138 267 421 444 708 444 335 0 584 -172 762
-528 35 -69 34 -93 -5 -118 -40 -27 -70 -11 -103 54 -91 180 -222 329 -350
396 -94 49 -251 84 -251 56 0 -5 5 -10 11 -10 25 0 138 -78 194 -135 68 -69
128 -163 128 -200 0 -38 -31 -67 -67 -63 -25 2 -36 13 -66 63 -78 133 -221
233 -361 255 -60 9 -87 8 -156 -6 -38 -7 -26 -21 25 -29 94 -13 201 -76 254
-149 33 -46 36 -78 8 -106 -34 -34 -64 -25 -110 30 -58 70 -132 104 -224 104
-71 1 -176 -26 -176 -45 0 -5 25 -9 55 -9 98 0 175 -47 175 -106 0 -59 -63
-83 -107 -42 -30 28 -83 29 -135 4 -83 -40 -166 -156 -152 -214 7 -29 52 -122
58 -122 3 0 42 38 88 83 96 96 204 157 323 182 293 61 588 -84 726 -357 33
-66 69 -203 69 -265 0 -49 -26 -83 -63 -83 -36 0 -54 29 -62 95 -27 230 -184
420 -395 479 -62 17 -146 25 -143 13 1 -5 31 -22 65 -39 132 -66 251 -228 294
-401 19 -79 11 -112 -31 -123 -49 -12 -71 8 -89 81 -37 148 -121 268 -228 325
-58 32 -71 35 -170 38 -88 3 -108 2 -108 -10 0 -8 18 -19 43 -26 59 -16 133
-77 174 -144 40 -64 39 -97 -2 -124 -35 -23 -61 -10 -102 52 -39 59 -94 98
-155 109 -39 7 -133 -9 -154 -26 -19 -15 24 -107 58 -125 38 -19 50 -46 38
-79 -14 -36 30 -125 62 -125 49 0 73 -54 44 -96 -13 -18 -12 -26 10 -75 18
-40 33 -58 54 -66 40 -15 58 -55 38 -85 -14 -20 -12 -28 15 -95 24 -57 36 -74
59 -82 39 -14 56 -53 36 -83 -15 -22 -13 -31 26 -128 31 -77 47 -106 62 -109
10 -2 25 -8 32 -13 15 -13 16 -70 1 -85 -8 -8 4 -56 42 -171 48 -147 55 -162
80 -171 37 -13 48 -54 26 -93 -16 -27 -15 -35 7 -126 13 -53 31 -138 41 -189
14 -71 22 -92 36 -96 10 -3 24 -17 30 -31 11 -23 9 -31 -9 -56 -21 -28 -22
-34 -12 -117 5 -49 10 -136 10 -194 0 -103 1 -107 25 -123 37 -24 35 -81 -3
-103 -25 -14 -29 -25 -45 -127 -10 -61 -36 -163 -58 -226 -22 -63 -42 -122
-45 -131 -4 -12 14 -27 70 -58 42 -23 83 -53 93 -67 15 -23 15 -29 2 -52 -25
-45 -50 -45 -131 -1 -529 287 -1051 473 -1722 614 -842 177 -1842 231 -2766
149 -1063 -94 -2038 -363 -2724 -752 -89 -50 -121 -55 -148 -22 -37 46 -13 80
103 141 43 23 59 37 55 48 -3 9 -23 68 -45 131 -22 63 -48 165 -58 226 -16
103 -20 113 -45 127 -38 22 -40 79 -3 103 24 16 25 20 25 123 0 58 5 146 10
195 8 81 7 91 -10 114 -27 33 -25 49 9 81 21 19 32 43 41 86 6 33 25 115 41
182 27 116 27 124 12 151 -22 39 -11 80 26 93 25 9 32 24 79 168 48 147 51
160 38 186 -22 42 -6 73 45 88 9 3 32 47 53 103 35 92 37 101 25 137 -13 38
-12 41 15 63 15 13 32 24 39 24 7 0 25 32 41 70 25 62 27 74 16 100 -10 25
-10 34 4 55 9 13 27 27 40 31 18 4 31 22 49 62 21 50 23 60 11 77 -29 41 -4
95 43 95 32 0 76 90 62 127 -11 31 2 58 39 77 29 15 68 96 59 120 -8 19 -110
40 -156 31 -60 -11 -116 -50 -155 -109 -41 -63 -66 -75 -102 -51 -46 30 -44
61 7 138 39 60 110 115 166 130 25 6 43 17 43 25 0 12 -20 13 -107 10 -132 -5
-182 -26 -263 -108 -63 -62 -112 -154 -137 -255 -18 -73 -39 -93 -88 -81 -42
11 -50 44 -31 123 44 176 160 335 294 401 34 17 62 34 62 38 -1 12 -78 5 -140
-12 -176 -50 -325 -198 -373 -374 -9 -30 -19 -80 -22 -110 -11 -84 -49 -112
-103 -74 -61 43 7 301 119 450 146 192 412 290 654 239 119 -25 227 -86 324
-183 96 -95 93 -96 131 6 l21 54 -24 52 c-59 126 -203 200 -270 138 -44 -41
-107 -17 -107 42 0 60 77 106 177 106 50 0 55 2 43 15 -25 24 -138 48 -194 41
-76 -10 -149 -49 -196 -106 -46 -55 -76 -64 -110 -30 -28 28 -25 60 8 106 53
73 160 136 255 149 50 8 62 22 25 29 -70 14 -97 15 -157 6 -137 -21 -288 -125
-356 -245 -15 -27 -35 -56 -43 -62 -33 -27 -78 -8 -95 39 -11 30 52 136 122
206 61 62 173 142 200 142 6 0 11 5 11 10 0 15 -54 12 -124 -6 -186 -48 -336
-185 -467 -428 -45 -84 -71 -100 -113 -72 -39 25 -40 49 -5 118 178 356 427
528 762 528 204 0 403 -86 559 -242 59 -59 143 -177 167 -236 16 -38 29 -41
36 -9 31 137 32 176 6 233 -22 47 -77 106 -124 131 -22 12 -52 17 -97 16 -74
-2 -100 13 -100 58 0 60 91 87 192 57 33 -10 41 -9 48 2 13 21 -2 34 -73 66
-86 39 -217 46 -294 15 -76 -30 -113 -12 -113 53 0 56 88 88 245 90 91 1 110
4 110 16 0 10 -25 24 -70 39 -56 19 -91 24 -180 24 -122 1 -168 -9 -268 -55
l-67 -32 -28 21 c-38 28 -40 66 -7 98 57 51 218 95 358 95 131 0 108 25 -47
51 -168 28 -362 -13 -541 -117 -87 -50 -115 -56 -145 -29 -43 39 -23 79 67
133 105 62 213 104 323 127 92 19 276 18 363 -1z m-1048 -1398 c122 -71 141
-95 111 -140 -25 -40 -61 -33 -173 30 -54 31 -106 63 -115 72 -38 33 -10 102
41 102 14 0 76 -29 136 -64z m8507 47 c23 -20 23 -55 1 -80 -30 -34 -212 -133
-243 -133 -21 0 -35 8 -46 26 -30 45 -11 69 111 140 115 67 146 75 177 47z
m-4949 -51 c13 -16 207 -723 207 -756 0 -24 -37 -56 -63 -56 -13 0 -31 8 -40
18 -22 24 -209 723 -205 765 5 52 66 69 101 29z m1305 5 c6 -5 12 -23 12 -39
0 -46 -189 -740 -207 -760 -9 -10 -27 -18 -40 -18 -27 0 -63 32 -63 57 0 28
192 737 203 752 24 29 63 32 95 8z m-4780 -718 c175 -73 323 -139 329 -147 29
-35 3 -102 -39 -102 -24 0 -648 259 -670 278 -38 32 -10 102 39 102 14 0 167
-59 341 -131z m8556 115 c21 -21 20 -67 -1 -86 -20 -17 -644 -278 -665 -278
-7 0 -24 7 -36 16 -23 16 -29 57 -13 82 11 19 639 281 673 282 15 0 34 -7 42
-16z m-5346 -244 c23 -35 42 -75 42 -87 0 -51 -70 -82 -102 -45 -29 32 -78
123 -78 144 0 34 30 59 64 56 26 -2 38 -14 74 -68z m1872 37 c14 -26 13 -31
-20 -93 -41 -79 -70 -102 -108 -88 -15 5 -31 21 -36 37 -8 23 -5 37 19 83 43
78 61 96 98 92 22 -2 36 -11 47 -31z m-3530 -137 c83 -48 100 -81 63 -122 -25
-27 -61 -22 -133 20 -59 34 -65 41 -68 74 -2 28 2 40 20 52 32 23 41 21 118
-24z m5178 24 c22 -15 28 -47 16 -78 -8 -21 -124 -86 -154 -86 -49 0 -77 55
-47 92 16 21 127 87 147 88 9 0 26 -7 38 -16z m-2317 -97 c399 -95 743 -344
951 -691 27 -44 48 -92 48 -107 0 -66 -79 -80 -115 -21 -98 159 -150 228 -250
327 -122 122 -233 202 -376 269 -204 97 -356 130 -594 130 -242 0 -414 -41
-626 -151 -244 -126 -405 -285 -584 -575 -36 -59 -115 -45 -115 21 0 15 22 64
49 109 213 354 568 608 967 691 143 30 142 30 349 26 160 -3 207 -7 296 -28z
m-4367 -314 c219 -59 405 -113 412 -121 33 -33 6 -102 -39 -102 -12 0 -201 48
-421 107 -337 90 -400 110 -413 129 -23 35 5 94 45 94 9 0 196 -48 416 -107z
m8512 99 c26 -17 35 -51 22 -79 -15 -31 15 -22 -499 -159 -209 -55 -335 -85
-351 -81 -33 9 -51 49 -36 82 13 29 -21 18 443 145 358 97 400 106 421 92z
m-4213 -61 c271 -62 535 -230 697 -444 43 -58 50 -90 23 -119 -34 -38 -67 -24
-132 56 -153 187 -354 317 -584 378 -60 15 -125 23 -245 27 -147 5 -165 8
-178 25 -8 11 -14 27 -14 36 0 24 28 58 53 64 50 11 294 -4 380 -23z m-568
-46 c30 -29 31 -45 7 -75 -20 -24 -107 -60 -164 -67 -31 -4 -39 -1 -54 22 -31
48 -11 75 81 112 44 18 86 33 93 33 7 0 24 -11 37 -25z m-1363 -102 c182 -105
199 -122 176 -171 -25 -51 -57 -43 -241 63 -168 98 -185 113 -173 159 5 20 36
43 59 45 5 1 85 -43 179 -96z m3543 85 c29 -13 42 -49 29 -79 -13 -27 -330
-209 -365 -209 -38 0 -64 39 -52 76 7 21 47 49 178 125 94 54 173 99 177 99 4
0 19 -5 33 -12z m-2473 -139 c27 -36 12 -67 -55 -113 -63 -43 -99 -44 -119 -1
-17 39 -2 69 54 109 61 42 92 44 120 5z m-2032 -213 c91 -25 336 -90 545 -146
209 -56 388 -106 397 -111 47 -25 23 -109 -30 -109 -49 -1 -1125 293 -1144
312 -36 36 -10 98 41 98 15 0 101 -20 191 -44z m5492 27 c21 -19 23 -52 5 -77
-10 -13 -165 -59 -563 -167 -302 -81 -564 -148 -581 -149 -58 0 -85 82 -35
109 9 5 256 73 547 151 292 78 535 143 540 145 26 9 70 3 87 -12z m-7002 -188
c241 -31 236 -30 256 -60 19 -29 11 -60 -19 -80 -20 -12 -51 -10 -263 18 -142
19 -249 38 -258 46 -9 7 -16 28 -16 47 0 42 32 67 75 60 17 -3 118 -17 225
-31z m8575 10 c30 -29 31 -45 7 -75 -17 -21 -42 -26 -262 -56 -172 -24 -248
-31 -261 -24 -41 22 -47 73 -12 101 12 11 397 72 486 78 10 0 29 -10 42 -24z
m-5745 -105 c25 -25 25 -22 -4 -124 -14 -46 -30 -112 -36 -147 -6 -35 -19 -72
-27 -81 -34 -38 -103 -9 -103 42 0 70 60 288 86 315 21 21 60 19 84 -5z m2389
10 c10 -5 28 -31 39 -58 30 -69 72 -219 72 -255 0 -55 -51 -85 -93 -54 -10 7
-28 53 -42 106 -14 52 -34 114 -45 139 -24 54 -25 90 -3 114 18 20 45 23 72 8z
m322 -20 c21 -28 64 -182 74 -264 6 -47 4 -57 -14 -75 -26 -26 -63 -27 -83 -3
-9 9 -25 63 -37 120 -12 56 -29 121 -36 143 -20 55 -19 65 6 90 26 26 66 22
90 -11z m-3891 -115 c74 -11 99 -19 113 -36 23 -28 22 -43 -6 -74 l-23 -27
-99 13 c-79 10 -105 18 -122 36 -13 12 -23 29 -23 38 0 16 43 65 57 65 4 0 51
-7 103 -15z m5125 -10 c31 -30 31 -50 3 -78 -33 -33 -199 -55 -234 -32 -28 18
-33 75 -9 95 12 10 139 35 198 39 10 0 29 -10 42 -24z m-6505 -335 c20 -20 26
-56 12 -76 -19 -28 -56 -34 -224 -34 -198 0 -218 6 -218 65 0 60 19 65 227 65
170 0 184 -1 203 -20z m2129 -4 c17 -18 22 -32 17 -50 -14 -58 -3 -57 -600
-54 -529 3 -548 4 -562 22 -21 30 -17 72 8 90 20 14 90 16 568 16 l547 0 22
-24z m4619 8 c25 -18 29 -60 8 -90 -14 -18 -33 -19 -564 -22 -544 -2 -549 -2
-575 18 -33 26 -34 56 -5 87 l21 23 547 0 c478 0 548 -2 568 -16z m1400 0 c32
-22 30 -78 -2 -99 -21 -14 -54 -16 -211 -13 -171 3 -188 5 -201 22 -20 28 -17
63 6 86 19 19 33 20 203 20 149 0 187 -3 205 -16z m-5673 -68 c13 -9 21 -32
25 -72 10 -82 -8 -114 -62 -114 -39 0 -58 33 -58 104 0 85 42 121 95 82z
m2867 -3 c23 -21 25 -118 2 -151 -18 -26 -65 -30 -88 -6 -25 24 -22 128 4 154
24 24 57 26 82 3z m-982 -490 c123 -19 297 -78 393 -133 185 -106 328 -287
381 -485 25 -90 30 -245 13 -340 -63 -346 -320 -604 -666 -669 -146 -28 -251
-18 -358 34 -248 122 -286 477 -74 691 103 103 239 128 360 68 134 -67 177
-203 101 -322 -32 -50 -66 -66 -104 -49 -37 17 -42 58 -12 101 37 52 34 95 -7
136 -70 70 -179 55 -261 -36 -128 -142 -119 -364 17 -456 63 -42 104 -53 206
-53 257 0 492 147 611 382 55 111 73 203 68 346 -6 130 -27 205 -89 308 -211
353 -802 474 -1378 284 -233 -76 -401 -158 -881 -425 -537 -300 -803 -421
-1128 -514 -153 -43 -373 -85 -531 -101 -114 -11 -410 -14 -436 -4 -42 17 -35
100 9 109 12 2 107 6 211 9 221 6 410 31 613 82 351 86 634 211 1207 531 344
192 477 262 635 331 400 176 744 231 1100 175z m-2540 -323 c20 -20 26 -56 12
-76 -12 -18 -44 -31 -97 -38 -219 -31 -549 -140 -853 -281 -133 -62 -165 -65
-182 -20 -17 45 3 71 88 114 261 131 637 259 897 305 108 19 112 19 135 -4z
m4226 5 c269 -47 639 -172 906 -306 87 -44 106 -70 86 -114 -20 -45 -48 -41
-180 20 -309 144 -580 233 -850 280 -87 16 -108 29 -108 72 0 22 31 63 49 63
4 0 48 -7 97 -15z m-1701 -40 c214 -44 389 -166 471 -327 73 -145 72 -342 -4
-482 -83 -154 -267 -265 -438 -266 -113 0 -186 34 -231 108 -41 67 -24 199 31
255 22 22 64 22 88 0 23 -21 23 -40 -2 -94 -26 -58 -25 -85 4 -114 32 -32 87
-41 160 -26 217 45 353 235 318 443 -31 180 -173 316 -392 375 -93 26 -419 25
-540 0 -293 -62 -496 -157 -915 -430 -543 -354 -839 -506 -1195 -612 -206 -61
-516 -125 -611 -125 -60 0 -89 55 -51 98 14 17 45 25 162 42 282 42 598 136
863 256 215 99 332 167 737 429 363 235 498 309 710 388 112 42 294 84 417 97
120 12 321 5 418 -15z m-705 -395 c28 -28 25 -48 -16 -105 -87 -122 -171 -334
-199 -505 -79 -491 142 -759 627 -760 279 0 496 63 1258 368 721 288 1048 377
1457 398 l131 7 26 -26 c31 -31 33 -56 7 -84 -17 -18 -35 -21 -178 -26 -369
-13 -694 -104 -1453 -407 -767 -306 -1060 -382 -1354 -352 -223 23 -356 80
-477 201 -131 131 -181 271 -181 501 0 202 43 388 137 587 92 195 159 259 215
203z m3644 -169 c52 -9 76 -30 76 -67 0 -46 -17 -49 -269 -49 -247 -1 -335 -9
-539 -51 -341 -70 -648 -185 -1287 -482 -441 -204 -604 -270 -797 -321 -397
-105 -688 -38 -821 191 -62 105 -73 275 -27 421 23 73 47 95 93 84 38 -10 50
-50 32 -103 -59 -175 -33 -320 76 -418 88 -79 231 -113 402 -95 229 23 438 98
959 340 156 72 344 158 418 191 439 195 823 312 1160 353 118 14 449 18 524 6z
m-4069 -106 c14 -13 25 -29 25 -35 0 -6 -18 -46 -39 -89 -136 -269 -160 -608
-60 -846 93 -223 293 -365 603 -429 123 -26 333 -37 494 -26 369 25 640 100
1292 358 352 139 555 210 670 234 54 11 61 10 80 -7 24 -21 26 -67 5 -89 -9
-9 -34 -20 -55 -26 -22 -5 -59 -15 -82 -21 -96 -25 -271 -88 -603 -219 -393
-155 -558 -213 -755 -264 -280 -73 -521 -102 -774 -93 -387 14 -650 109 -837
304 -105 108 -169 232 -205 396 -25 109 -22 325 5 455 20 97 21 122 2 122 -4
0 -85 -52 -179 -115 -381 -253 -794 -458 -1124 -555 -128 -38 -167 -37 -187 4
-23 49 5 73 134 111 434 128 903 379 1390 744 81 61 154 111 162 111 8 0 25
-11 38 -25z m-473 -792 c23 -21 23 -66 1 -89 -63 -63 -371 -240 -572 -329 -93
-41 -107 -45 -132 -35 -32 14 -44 40 -35 76 5 19 22 31 69 51 139 59 379 188
487 262 119 81 151 93 182 64z m133 -369 c23 -9 36 -49 26 -77 -9 -23 -150
-123 -256 -182 -59 -33 -99 -29 -117 10 -18 40 3 68 89 118 43 25 107 67 142
92 64 44 84 51 116 39z"/>
<path d="M1870 5371 c-11 -22 -20 -43 -20 -45 0 -8 57 -36 73 -36 7 0 23 20
35 45 l22 46 -23 8 c-65 24 -65 24 -87 -18z"/>
<path d="M7460 5403 c-8 -3 -25 -10 -37 -14 l-23 -8 22 -46 c12 -25 28 -45 35
-45 16 0 73 28 73 36 0 12 -41 84 -48 83 -4 0 -14 -3 -22 -6z"/>
<path d="M1772 5164 c-12 -24 -22 -47 -22 -49 0 -5 68 -35 80 -35 10 0 45 88
38 95 -2 2 -20 11 -39 19 l-36 15 -21 -45z"/>
<path d="M7545 5193 c-16 -8 -32 -17 -34 -19 -7 -6 30 -94 40 -94 8 0 68 27
77 35 5 4 -41 95 -47 95 -4 -1 -19 -8 -36 -17z"/>
<path d="M1675 4950 c-14 -27 -25 -54 -25 -59 0 -9 88 -47 93 -40 7 8 37 95
37 105 0 6 -18 18 -40 27 l-40 16 -25 -49z"/>
<path d="M7638 4983 c-21 -9 -38 -22 -38 -29 0 -12 28 -93 36 -103 5 -6 94 32
94 41 0 9 -49 109 -53 107 -1 -1 -19 -8 -39 -16z"/>
<path d="M1566 4704 c-15 -37 -23 -70 -19 -74 16 -14 104 -33 112 -24 9 9 41
101 41 116 0 5 -15 15 -32 22 -75 31 -72 32 -102 -40z"/>
<path d="M7735 4754 c-22 -8 -43 -18 -48 -23 -9 -9 18 -108 34 -125 8 -9 96
10 112 24 8 7 -42 141 -52 139 -3 0 -24 -7 -46 -15z"/>
<path d="M1453 4427 c-46 -117 -48 -109 32 -129 39 -10 76 -17 84 -15 14 2 64
184 52 191 -10 6 -114 36 -125 36 -6 0 -25 -37 -43 -83z"/>
<path d="M7822 4495 c-23 -7 -48 -15 -56 -18 -11 -4 -9 -23 9 -99 14 -58 27
-94 36 -95 8 -2 46 5 84 15 80 20 78 12 32 129 -35 90 -35 90 -105 68z"/>
<path d="M1361 4182 c-23 -46 -92 -275 -85 -282 5 -4 61 -11 125 -15 l116 -7
18 129 c9 70 17 133 16 138 -1 10 -12 14 -119 39 -57 13 -63 13 -71 -2z"/>
<path d="M7925 4179 c-44 -11 -85 -21 -91 -23 -8 -3 -7 -26 1 -83 7 -43 16
-104 20 -136 l7 -59 116 7 c65 4 121 11 126 15 8 8 -79 286 -92 294 -4 2 -43
-5 -87 -15z"/>
<path d="M1225 3759 c-10 -29 -64 -260 -71 -304 l-7 -47 59 6 c33 3 112 8 177
12 l117 6 0 137 c0 75 3 146 6 158 7 26 -7 30 -163 39 -91 5 -114 4 -118 -7z"/>
<path d="M7958 3761 c-43 -4 -79 -9 -80 -11 -2 -3 -2 -75 0 -161 l4 -157 116
-6 c65 -4 143 -9 176 -12 l59 -6 -7 43 c-4 24 -21 105 -39 179 l-32 135 -60 1
c-33 1 -95 -2 -137 -5z"/>
<path d="M1305 3296 l-180 -11 -7 -50 c-3 -27 -10 -112 -14 -187 -7 -132 -6
-138 12 -137 10 0 111 17 224 38 l205 37 -2 40 c-5 83 -39 277 -48 279 -6 1
-91 -3 -190 -9z"/>
<path d="M7874 3296 c-5 -18 -37 -249 -38 -280 l-1 -30 205 -37 c113 -21 214
-38 224 -38 18 -1 19 5 11 137 -4 75 -10 160 -14 187 l-6 50 -125 7 c-69 4
-154 8 -189 10 -38 3 -64 0 -67 -6z"/>
<path d="M1325 2820 c-115 -22 -212 -39 -214 -39 -6 -1 10 -116 29 -196 10
-44 33 -119 50 -167 l32 -87 66 33 c54 27 216 97 410 177 13 5 22 13 20 17 -2
4 -17 34 -34 67 -17 33 -46 99 -64 148 -30 79 -36 87 -59 86 -14 0 -120 -18
-236 -39z"/>
<path d="M7784 2843 c-20 -62 -71 -186 -95 -232 -16 -30 -26 -58 -22 -62 5 -4
69 -32 143 -62 74 -30 183 -77 242 -105 l107 -50 30 83 c48 132 94 346 78 362
-8 7 -419 82 -455 83 -13 0 -25 -7 -28 -17z"/>
</g>
</svg>
